<svg width="50" height="50" viewBox="0 0 50 50" fill="none" xmlns="http://www.w3.org/2000/svg">
<path d="M46.4712 13.6011C46.318 9.82602 44.704 6.33001 41.9247 3.76409C40.6117 2.55498 39.1181 1.61396 37.4822 0.968377C35.8464 0.328264 34.1176 0 32.3395 0C32.148 0 31.951 0.00547106 31.7595 0.0109421C27.9845 0.164132 24.494 1.77809 21.9226 4.56286L6.00728 21.7365C5.49847 22.2891 5.52582 23.1481 6.07293 23.6623L7.17808 24.7018C7.73066 25.2216 8.60056 25.1942 9.12031 24.6362L25.0466 7.45158C26.8629 5.482 29.5274 4.34949 32.3504 4.34949C34.889 4.34949 37.2689 5.25222 39.0415 6.89353C40.9837 8.68804 42.1163 11.1281 42.2203 13.7761C42.3242 16.4186 41.4051 18.9353 39.6215 20.8666L17.9889 43.9599C16.9057 45.1308 15.3245 45.8037 13.6449 45.8037C12.1349 45.8037 10.7179 45.2675 9.662 44.2882C8.5076 43.2214 7.84013 41.7715 7.76901 40.1959C7.70336 38.6257 8.25046 37.1266 9.30638 35.9831C9.30638 35.9831 29.4399 14.4983 29.4728 14.4709C31.2344 12.6436 33.9973 15.3025 32.2356 17.1299C29.243 20.232 21.5561 28.5316 17.792 32.6075C17.2832 33.1601 17.3105 34.019 17.8576 34.5333L18.9628 35.5728C19.5154 36.0926 20.3853 36.0652 20.905 35.5072L35.3979 19.8818C37.6902 17.398 37.537 13.508 35.0477 11.2102C33.9152 10.1652 32.4325 9.58529 30.8842 9.58529C30.0472 9.58529 29.2374 9.74942 28.4714 10.0777C27.6837 10.4114 26.9834 10.9038 26.4034 11.5385L6.19876 33.0835C2.40732 37.1923 2.66993 43.6207 6.77869 47.4177C8.58414 49.0863 11.0188 50 13.6339 50C16.5391 50 19.2582 48.8565 21.0965 46.8651L42.729 23.7717C45.2895 20.9924 46.6189 17.3816 46.4712 13.6011Z" fill="black" fill-opacity="0.15"/>
</svg>
