<svg width="52" height="52" viewBox="0 0 52 52" fill="none" xmlns="http://www.w3.org/2000/svg">
<g clip-path="url(#clip0_5_55)">
<path d="M41.7041 0H19.8576C16.6843 0 14.1024 2.58185 14.1024 5.7552V6.46155H10.296C7.12262 6.46155 4.54077 9.04339 4.54077 12.2167V46.2451C4.54077 49.4184 7.12262 52.0003 10.296 52.0003H32.1424C35.3158 52.0003 37.8974 49.4184 37.8974 46.2451V45.5387H41.7038C44.8772 45.5387 47.459 42.9569 47.459 39.7835V5.7552C47.4593 2.58185 44.8774 0 41.7041 0ZM34.1852 46.2451C34.1852 47.3714 33.2688 48.2879 32.1427 48.2879H10.296C9.16963 48.2879 8.25317 47.3714 8.25317 46.2451V12.2165C8.25317 11.0902 9.16963 10.1737 10.296 10.1737H32.1424C33.2688 10.1737 34.185 11.0902 34.185 12.2165V46.2451H34.1852ZM43.7469 39.7835C43.7469 40.9098 42.8304 41.8263 41.7041 41.8263H37.8976V12.2165C37.8976 9.04315 35.3158 6.4613 32.1427 6.4613H17.8148V5.75495C17.8148 4.62861 18.7313 3.71215 19.8576 3.71215H41.7041C42.8304 3.71215 43.7469 4.62861 43.7469 5.75495V39.7835Z" fill="white"/>
<path d="M41.7041 0H19.8576C16.6843 0 14.1024 2.58185 14.1024 5.7552V6.46155H10.296C7.12262 6.46155 4.54077 9.04339 4.54077 12.2167V46.2451C4.54077 49.4184 7.12262 52.0003 10.296 52.0003H32.1424C35.3158 52.0003 37.8974 49.4184 37.8974 46.2451V45.5387H41.7038C44.8772 45.5387 47.459 42.9569 47.459 39.7835V5.7552C47.4593 2.58185 44.8774 0 41.7041 0ZM34.1852 46.2451C34.1852 47.3714 33.2688 48.2879 32.1427 48.2879H10.296C9.16963 48.2879 8.25317 47.3714 8.25317 46.2451V12.2165C8.25317 11.0902 9.16963 10.1737 10.296 10.1737H32.1424C33.2688 10.1737 34.185 11.0902 34.185 12.2165V46.2451H34.1852ZM43.7469 39.7835C43.7469 40.9098 42.8304 41.8263 41.7041 41.8263H37.8976V12.2165C37.8976 9.04315 35.3158 6.4613 32.1427 6.4613H17.8148V5.75495C17.8148 4.62861 18.7313 3.71215 19.8576 3.71215H41.7041C42.8304 3.71215 43.7469 4.62861 43.7469 5.75495V39.7835Z" stroke="white"/>
</g>
<defs>
<clipPath id="clip0_5_55">
<rect width="52" height="52" fill="white"/>
</clipPath>
</defs>
</svg>
