<svg width="41" height="41" viewBox="0 0 41 41" fill="none" xmlns="http://www.w3.org/2000/svg">
<path d="M18.6208 3.58748C10.7625 4.44165 4.44162 10.7625 3.58745 18.45C2.73329 26.4791 7.34579 33.6541 14.35 36.3875C14.8625 36.5583 15.375 36.2166 15.375 35.5333V32.8C15.375 32.8 14.6916 32.9708 13.8375 32.9708C11.4458 32.9708 10.4208 30.9208 10.25 29.725C10.0791 29.0416 9.73745 28.5291 9.22495 28.0166C8.71245 27.8458 8.54162 27.8458 8.54162 27.675C8.54162 27.3333 9.05412 27.3333 9.22495 27.3333C10.25 27.3333 11.1041 28.5291 11.4458 29.0416C12.3 30.4083 13.325 30.75 13.8375 30.75C14.5208 30.75 15.0333 30.5791 15.375 30.4083C15.5458 29.2125 16.0583 28.0166 17.0833 27.3333C13.1541 26.4791 10.25 24.2583 10.25 20.5C10.25 18.6208 11.1041 16.7416 12.3 15.375C12.1291 15.0333 11.9583 14.1791 11.9583 12.9833C11.9583 12.3 11.9583 11.275 12.4708 10.25C12.4708 10.25 14.8625 10.25 17.2541 12.4708C18.1083 12.1291 19.3041 11.9583 20.5 11.9583C21.6958 11.9583 22.8916 12.1291 23.9166 12.4708C26.1375 10.25 28.7 10.25 28.7 10.25C29.0416 11.275 29.0416 12.3 29.0416 12.9833C29.0416 14.35 28.8708 15.0333 28.7 15.375C29.8958 16.7416 30.75 18.45 30.75 20.5C30.75 24.2583 27.8458 26.4791 23.9166 27.3333C24.9416 28.1875 25.625 29.725 25.625 31.2625V35.7041C25.625 36.2166 26.1375 36.7291 26.8208 36.5583C33.1416 33.9958 37.5833 27.8458 37.5833 20.6708C37.5833 10.4208 28.8708 2.39165 18.6208 3.58748Z" fill="black"/>
</svg>
